<svg xmlns="http://www.w3.org/2000/svg"  viewBox="0 0 64 64" width="64px" height="64px"><path d="M 32 4 C 16.536 4 4 16.536 4 32 C 4 47.464 16.536 60 32 60 C 47.464 60 60 47.464 60 32 C 60 16.536 47.464 4 32 4 z M 32 6 C 46.336 6 58 17.664 58 32 C 58 46.336 46.336 58 32 58 C 17.664 58 6 46.336 6 32 C 6 17.664 17.664 6 32 6 z M 20 11 A 1.0001 1.0001 0 0 0 19.142578 12.513672 L 30.234375 31 L 8 31 A 1.0001 1.0001 0 0 0 7.1425781 32.513672 L 19.142578 52.513672 A 1.0001 1.0001 0 0 0 20.857422 52.513672 L 32 33.943359 L 43.142578 52.513672 A 1.0001 1.0001 0 0 0 44.857422 52.513672 L 56.857422 32.513672 A 1.0001 1.0001 0 0 0 56 31 L 33.765625 31 L 44.857422 12.513672 A 1.0001 1.0001 0 0 0 44 11 L 20 11 z M 21.765625 13 L 42.234375 13 L 32 30.056641 L 21.765625 13 z M 12 23 C 11.447 23 11 23.448 11 24 L 11 26 C 11 26.552 11.447 27 12 27 C 12.553 27 13 26.552 13 26 L 13 24 C 13 23.448 12.553 23 12 23 z M 17 23 C 16.447 23 16 23.448 16 24 L 16 26 C 16 26.552 16.447 27 17 27 C 17.553 27 18 26.552 18 26 L 18 24 C 18 23.448 17.553 23 17 23 z M 22 23 C 21.447 23 21 23.448 21 24 L 21 26 C 21 26.552 21.447 27 22 27 C 22.553 27 23 26.552 23 26 L 23 24 C 23 23.448 22.553 23 22 23 z M 42 23 C 41.447 23 41 23.448 41 24 L 41 26 C 41 26.552 41.447 27 42 27 C 42.553 27 43 26.552 43 26 L 43 24 C 43 23.448 42.553 23 42 23 z M 47 23 C 46.447 23 46 23.448 46 24 L 46 26 C 46 26.552 46.447 27 47 27 C 47.553 27 48 26.552 48 26 L 48 24 C 48 23.448 47.553 23 47 23 z M 52 23 C 51.447 23 51 23.448 51 24 L 51 26 C 51 26.552 51.447 27 52 27 C 52.553 27 53 26.552 53 26 L 53 24 C 53 23.448 52.553 23 52 23 z M 9.765625 33 L 30.234375 33 L 20 50.056641 L 9.765625 33 z M 33.765625 33 L 54.234375 33 L 44 50.056641 L 33.765625 33 z"/></svg>