<svg xmlns="http://www.w3.org/2000/svg"  viewBox="0 0 64 64" width="64px" height="64px"><circle cx="32" cy="32" r="28" fill="#ffeb9b"/><circle cx="32" cy="32" r="21" fill="#f9dd8f"/><path fill="#8d6c9f" d="M32,6c14.336,0,26,11.664,26,26S46.336,58,32,58S6,46.336,6,32S17.664,6,32,6 M32,4	C16.536,4,4,16.536,4,32s12.536,28,28,28s28-12.536,28-28S47.464,4,32,4L32,4z"/><polygon fill="#85cbf8" points="20,12 44,12 32,32"/><path fill="#8d6c9f" d="M32,33c-0.352,0-0.677-0.184-0.857-0.485l-12-20c-0.186-0.309-0.19-0.694-0.013-1.007 S19.64,11,20,11h24c0.36,0,0.692,0.194,0.87,0.507s0.173,0.698-0.013,1.007l-12,20C32.677,32.816,32.352,33,32,33z M21.767,13 L32,30.056L42.233,13H21.767z"/><polygon fill="#85cbf8" points="8,32 32,32 20,52"/><path fill="#8d6c9f" d="M20,53c-0.352,0-0.677-0.184-0.857-0.485l-12-20c-0.186-0.309-0.19-0.694-0.013-1.007S7.64,31,8,31 h24c0.36,0,0.692,0.194,0.87,0.507s0.173,0.698-0.013,1.007l-12,20C20.677,52.816,20.352,53,20,53z M9.767,33L20,50.056L30.233,33 H9.767z"/><polygon fill="#85cbf8" points="32,32 56,32 44,52"/><path fill="#8d6c9f" d="M44,53c-0.352,0-0.677-0.184-0.857-0.485l-12-20c-0.186-0.309-0.19-0.694-0.013-1.007 S31.64,31,32,31h24c0.36,0,0.692,0.194,0.87,0.507s0.173,0.698-0.013,1.007l-12,20C44.677,52.816,44.352,53,44,53z M33.767,33 L44,50.056L54.233,33H33.767z"/><g><path fill="#8d6c9f" d="M12,27c-0.553,0-1-0.448-1-1v-2c0-0.552,0.447-1,1-1s1,0.448,1,1v2C13,26.552,12.553,27,12,27z"/><path fill="#8d6c9f" d="M17,27c-0.553,0-1-0.448-1-1v-2c0-0.552,0.447-1,1-1s1,0.448,1,1v2C18,26.552,17.553,27,17,27z"/><path fill="#8d6c9f" d="M22,27c-0.553,0-1-0.448-1-1v-2c0-0.552,0.447-1,1-1s1,0.448,1,1v2C23,26.552,22.553,27,22,27z"/></g><g><path fill="#8d6c9f" d="M42,27c-0.553,0-1-0.448-1-1v-2c0-0.552,0.447-1,1-1s1,0.448,1,1v2C43,26.552,42.553,27,42,27z"/><path fill="#8d6c9f" d="M47,27c-0.553,0-1-0.448-1-1v-2c0-0.552,0.447-1,1-1s1,0.448,1,1v2C48,26.552,47.553,27,47,27z"/><path fill="#8d6c9f" d="M52,27c-0.553,0-1-0.448-1-1v-2c0-0.552,0.447-1,1-1s1,0.448,1,1v2C53,26.552,52.553,27,52,27z"/></g></svg>